<svg id="Capa_1" data-name="Capa 1" xmlns="http://www.w3.org/2000/svg" viewBox="0 0 819.9 184.89"><defs><style>.cls-1{fill:#624696;}</style></defs><title>evol_logo</title><path class="cls-1" d="M100,141.68l25,23.75c-7,4.13-13.1,8.8-20,11.65-27.58,11.45-54.55,11.34-79.28-7.25C9.23,157.42,1.32,140.08.15,119.69-.93,101,3.74,83.85,16.17,69.41s28.22-21.7,47.09-22.76c15.9-.89,30.81,1.85,43.73,11.87,15.07,11.69,21.9,27.91,25.31,45.92a137.79,137.79,0,0,1,2,16.73c.41,6.34.2,6.37-6,6.37H38.85c.57,11.31,13.27,23.14,26.28,24.55C78.35,153.53,90,149.16,100,141.68Zm-61-40.75H98C97.79,90.3,86.53,80,74.33,78.85,57.74,77.3,42.1,86.8,39.07,100.93Z"/><path class="cls-1" d="M340.51,184.47c-33.56.64-63.75-22.55-71.27-53-8-32.33,8.23-64.2,40.13-78.53,40.12-18,86.05,2.31,99.49,42,10.22,30.22-4,64.72-33.13,80.46C364.4,181.54,352.42,185,340.51,184.47Zm36.61-69c0-20.74-17.15-38.53-37.19-38.55-19.84,0-37.46,18-37.55,38.35-.09,20.6,17.67,39,37.61,38.84S377.11,136.11,377.12,115.47Z"/><path class="cls-1" d="M127.33,49.6c7.58,0,14.67-.05,21.76,0,5.32.06,11.84-1.55,15.6.93s4.75,9,6.72,13.9Q185.34,99,199.16,133.59c.58,1.44,1.26,2.84,2.48,5.56,1.35-3,2.2-4.72,2.89-6.48,10.2-26,20.45-52.06,30.48-78.16,1.41-3.66,3.18-5.12,7.23-5,10.63.29,21.28.1,32.59.1a37.07,37.07,0,0,1-1.15,4c-17.41,40.62-34.91,81.2-52.17,121.88-1.89,4.47-4.11,6.39-9.14,6.1-8-.45-16-.22-24-.07-2.86.05-4.53-.8-5.73-3.55q-27.15-62.65-54.48-125.23A27.57,27.57,0,0,1,127.33,49.6Z"/><path class="cls-1" d="M464.32,92.62c0,27.7-.11,55.39.12,83.09,0,4.72-1.46,5.95-6,5.8-9-.3-18-.18-27,0-3.18.05-4.39-1-4.38-4.28q.12-85.06,0-170.14c0-3.33,1.22-4.32,4.39-4.27,9,.13,18,.26,27,0,4.51-.15,6,1.1,5.95,5.81C464.21,36.57,464.32,64.6,464.32,92.62Z"/><path class="cls-1" d="M615.06,182.81c-7.34,2.32-11.07-.51-13.55-6.7-2-5-5-9.58-7.5-14.35l-1.29.26V183.1h-9.36v-52c6.14.29,12.12.1,17.95.95,7.3,1.06,10.74,5,12,12,1.05,5.95-1.67,11.75-7.16,15.2-.68.43-1.41.79-2.66,1.5C607.33,168.08,611.13,175.33,615.06,182.81Zm-22.38-29.23c4.36-1.72,7.92-2.64,10.81-4.56.89-.59.73-4.46-.29-5.87-2.59-3.59-6.6-2.66-10.52-2.17Z"/><path class="cls-1" d="M742.23,140.69c-1.79,1.89-3.58,3.81-5.8,6.16-5.85-6-12.77-8.84-20.5-7a22.17,22.17,0,0,0-10.35,6.22c-6.05,6.47-5.5,17.14.42,23.59,7,7.67,18.12,7.28,30.46-1.32,1.74,2,3.54,4.11,5.35,6.21-10.12,12-29.91,13.3-41.27,2.55-11-10.44-10.9-29.34.29-39.54C712.68,126.8,732.37,128.21,742.23,140.69Z"/><path class="cls-1" d="M552.75,159.53v14.25H571v9.38H543.37V131.65H571v8.93h-18.1v9.28H571v9.67Z"/><path class="cls-1" d="M753.43,131.53h27.7v8.94H763v9.63h18.18v9.32H762.94v14.42h18.23v9.26H753.43Z"/><path class="cls-1" d="M619.87,131.71c8.77-1.15,8.78-1.15,11.53,6.58,3.48,9.75,7,19.5,11,30.7,1.43-3.48,2.35-5.52,3.12-7.62,2.85-7.76,5.65-15.54,8.47-23.31,2.7-7.44,2.7-7.44,11.69-6.3-1,2.84-1.92,5.57-2.9,8.28-4.77,13.23-9.61,26.43-14.28,39.69-1,2.74-2.28,4-5.36,3.75-2.8-.25-5.23.24-6.52-3.57-5.16-15.19-10.76-30.22-16.17-45.33A17.75,17.75,0,0,1,619.87,131.71Z"/><path class="cls-1" d="M532.45,138l-6.86,6.11c-1.71-1.34-3.11-3.26-4.79-3.54-2.49-.42-6-.62-7.58.79-2.42,2.23-.14,4.78,2,6.6,4.42,3.78,9,7.42,13.23,11.36A13.73,13.73,0,0,1,533,171.38a13.27,13.27,0,0,1-8.8,11.66c-6.13,2.38-12.18,2-17.45-2.19-2.27-1.81-4-4.34-6.33-7l7.7-4.82a50.2,50.2,0,0,0,4.17,4.37c3.08,2.55,8.36,2.5,10.46-.14,3-3.76.48-6.49-2.17-8.94-4.63-4.27-9.77-8.08-14-12.73-5.53-6.11-4.39-14.13,2.11-18.56,4.93-3.36,10.3-3.79,15.57-.95C527,133.52,529.29,135.66,532.45,138Z"/><path class="cls-1" d="M786.42,173.73l8-4.93a33,33,0,0,0,4.06,4.75c3.08,2.54,8.37,2.19,10.39-.55,2.67-3.64.32-6.26-2.21-8.55-3.69-3.35-7.72-6.33-11.34-9.75-7.27-6.89-8.23-13.72-3-19.59,5.5-6.22,14.82-6.42,22-.53a51.52,51.52,0,0,0,4.56,2.95l-7.34,6.61c-1.88-1.48-3.31-3.5-5-3.74-2.48-.34-5.14.59-7.72,1,.74,2.15.87,4.9,2.32,6.34,4.23,4.21,9.56,7.41,13.32,11.94a20.84,20.84,0,0,1,4.31,11.55c.32,5.53-3.2,9.68-8.43,11.77-6.11,2.44-12.19,2.1-17.48-2C790.49,179.11,788.75,176.4,786.42,173.73Z"/><path class="cls-1" d="M673.46,131.43h8.63v51.64h-8.63Z"/></svg>